<?xml version="1.0" encoding="UTF-8" standalone="no"?>
<svg
   viewBox="0 0 24 24"
   xmlns="http://www.w3.org/2000/svg"
   xmlns:svg="http://www.w3.org/2000/svg">
<path
     id="path1"
     d="M 8 3 C 7 3 6 4 6 5 L 6 19 C 6 20 7 21 8 21 L 16 21 C 17 21 18 20 18 19 L 18 6 C 16.5 6 14.5 4.5 14.5 3 L 8 3 z M 15.453 7.959 L 16.021 8.945 L 16.002 8.957 C 15.938 8.891 15.867 8.83 15.787 8.773 C 15.706 8.713 15.618 8.67 15.521 8.645 C 15.425 8.619 15.322 8.612 15.213 8.623 C 15.107 8.633 14.996 8.67 14.881 8.736 L 14.516 8.947 L 15.176 10.094 L 16.092 9.566 L 16.102 9.586 L 15.908 10.152 L 15.383 10.455 L 16.818 12.945 L 16.799 12.957 C 16.681 12.901 16.53 12.859 16.348 12.832 C 16.168 12.803 15.988 12.81 15.805 12.855 L 13.705 9.209 L 13.346 9.199 L 13.334 9.18 L 15.453 7.959 z M 12.221 10.076 C 12.401 10.07 12.573 10.091 12.74 10.143 C 12.963 10.211 13.173 10.328 13.367 10.494 C 13.559 10.657 13.727 10.865 13.871 11.115 C 14.026 11.385 14.127 11.645 14.174 11.896 C 14.22 12.148 14.215 12.385 14.16 12.609 C 14.105 12.833 14 13.04 13.844 13.229 C 13.69 13.415 13.489 13.578 13.242 13.721 L 11.918 14.484 L 11.906 14.465 L 12.078 14.148 L 10.568 11.527 L 11.166 11.184 L 11.154 11.164 L 9.986 11.131 L 9.977 11.113 L 11.301 10.35 C 11.548 10.207 11.793 10.121 12.037 10.092 C 12.098 10.083 12.161 10.078 12.221 10.076 z M 11.887 10.537 C 11.755 10.542 11.619 10.583 11.48 10.662 L 11.145 10.857 L 12.725 13.604 L 13.063 13.408 C 13.339 13.249 13.476 13.021 13.475 12.723 C 13.475 12.419 13.342 12.035 13.076 11.572 C 12.797 11.087 12.529 10.776 12.273 10.637 C 12.147 10.566 12.019 10.533 11.887 10.537 z M 9.438 11.668 C 9.477 11.668 9.518 11.671 9.557 11.676 C 9.712 11.693 9.852 11.745 9.979 11.83 C 10.108 11.914 10.218 12.035 10.311 12.195 C 10.407 12.362 10.458 12.53 10.465 12.697 C 10.47 12.861 10.442 13.018 10.383 13.168 C 10.322 13.314 10.235 13.45 10.119 13.576 C 10.005 13.697 9.875 13.8 9.73 13.883 L 9.711 13.895 L 9.158 13.867 L 10.402 16.031 L 10.383 16.041 C 10.265 15.985 10.116 15.943 9.934 15.916 C 9.754 15.887 9.572 15.896 9.389 15.941 L 7.775 13.137 L 8.371 12.793 L 8.361 12.773 L 7.193 12.74 L 7.182 12.721 L 8.525 11.947 C 8.708 11.842 8.888 11.766 9.063 11.721 C 9.192 11.684 9.318 11.667 9.438 11.668 z M 8.99 12.248 C 8.852 12.248 8.691 12.301 8.508 12.406 L 8.363 12.49 L 9.113 13.791 L 9.334 13.662 C 9.53 13.549 9.649 13.414 9.689 13.254 C 9.731 13.089 9.686 12.893 9.557 12.668 C 9.427 12.443 9.283 12.309 9.121 12.266 C 9.08 12.254 9.036 12.248 8.99 12.248 z " />
</svg>