<?xml version="1.0" encoding="UTF-8" standalone="no"?>
<!DOCTYPE svg PUBLIC "-//W3C//DTD SVG 1.1//EN" "http://www.w3.org/Graphics/SVG/1.1/DTD/svg11.dtd">
<svg width="100%" height="100%" viewBox="0 0 24 24" version="1.1" xmlns="http://www.w3.org/2000/svg" xmlns:xlink="http://www.w3.org/1999/xlink" xml:space="preserve" xmlns:serif="http://www.serif.com/" style="fill-rule:evenodd;clip-rule:evenodd;">
    <g transform="matrix(12,0,0,9,-66,-113)">
        <path d="M7,14.14L7,14.86C7,14.937 6.953,15 6.895,15L6.105,15C6.047,15 6,14.937 6,14.86L6,14.14C6,14.063 6.047,14 6.105,14L6.895,14C6.953,14 7,14.063 7,14.14Z" style="fill:#808080;"/>
    </g>
    <path d="M20,3L20,21C20,22.104 19.104,23 18,23L6,23C4.896,23 4,22.104 4,21L4,3C4,1.896 4.896,1 6,1L18,1C19.104,1 20,1.896 20,3Z" style="fill:none;stroke:black;stroke-width:2px;"/>
    <path d="M4,9C5.021,21.024 5.038,21.042 12,21C19.08,20.979 19.065,21.002 20,9L19.598,22.548L4.33,22.571L4,9Z"/>
    <g transform="matrix(0.833333,0,0,1,2,0)">
        <path d="M6,4L18,4" style="fill:none;stroke:#808080;stroke-width:2.17px;stroke-linecap:round;stroke-linejoin:round;stroke-miterlimit:1.5;"/>
    </g>
</svg>
