<?xml version="1.0" encoding="UTF-8" standalone="no"?><!DOCTYPE svg PUBLIC "-//W3C//DTD SVG 1.1//EN" "http://www.w3.org/Graphics/SVG/1.1/DTD/svg11.dtd"><svg width="100%" height="100%" viewBox="0 0 417 417" version="1.1" xmlns="http://www.w3.org/2000/svg" xmlns:xlink="http://www.w3.org/1999/xlink" xml:space="preserve" xmlns:serif="http://www.serif.com/" style="fill-rule:evenodd;clip-rule:evenodd;stroke-linejoin:round;stroke-miterlimit:2;"><path d="M364.575,257.943c-42.944,27.098 -104.606,45.061 -154.192,47.563l-0,52.827l-85.383,-78.871l85.383,-78.946l-0,51.2c79.859,-6.34 128.071,-22.327 154.192,-42.021l0,-157.612c0,-28.746 -23.328,-52.075 -52.075,-52.075c0,0 -208.333,0 -208.333,0c-28.747,0 -52.075,23.329 -52.075,52.075c-0,0 -0,312.5 -0,312.5c-0,28.747 23.328,52.075 52.075,52.075l208.333,0c28.747,0 52.075,-23.328 52.075,-52.075l0,-106.64Z"/><path d="M364.575,209.695l0,48.248c56.09,-35.393 80.207,-86.379 3.588,-138.814c25.733,25.952 34.139,62.125 -3.588,90.566Z" style="fill-rule:nonzero;"/></svg>