<?xml version="1.0" encoding="UTF-8" standalone="no"?>
<!DOCTYPE svg PUBLIC "-//W3C//DTD SVG 1.1//EN" "http://www.w3.org/Graphics/SVG/1.1/DTD/svg11.dtd">
<svg width="100%" height="100%" viewBox="0 0 24 24" version="1.1" xmlns="http://www.w3.org/2000/svg" xmlns:xlink="http://www.w3.org/1999/xlink" xml:space="preserve" xmlns:serif="http://www.serif.com/" style="fill-rule:evenodd;clip-rule:evenodd;stroke-linejoin:round;stroke-miterlimit:2;">
    <g transform="matrix(0.905984,0,0,0.905984,6.18357,20.7453)">
        <path d="M5.032,-9.165C5.857,-9.502 6.513,-9.886 7,-10.317C7.487,-10.748 7.862,-11.212 8.124,-11.709C8.387,-12.205 8.555,-12.721 8.63,-13.255C8.705,-13.789 8.743,-14.337 8.743,-14.899C8.743,-16.005 8.541,-16.891 8.138,-17.556C7.735,-18.221 7.112,-18.554 6.269,-18.554C5.857,-18.554 5.496,-18.465 5.187,-18.287C4.877,-18.109 4.624,-17.875 4.428,-17.584C4.231,-17.294 4.081,-16.961 3.978,-16.586C3.875,-16.211 3.823,-15.836 3.823,-15.462C3.823,-15.143 3.842,-14.829 3.879,-14.52C3.917,-14.211 3.973,-13.962 4.048,-13.775L3.964,-13.691L0.843,-17.654C1.518,-18.273 2.352,-18.812 3.345,-19.271C4.339,-19.73 5.454,-19.96 6.691,-19.96C7.646,-19.96 8.518,-19.838 9.305,-19.594C10.092,-19.35 10.767,-19.008 11.329,-18.568C11.891,-18.128 12.327,-17.598 12.636,-16.98C12.946,-16.361 13.1,-15.668 13.1,-14.899C13.1,-13.344 12.618,-12.013 11.652,-10.907C10.687,-9.802 9.389,-8.902 7.759,-8.209L6.691,-5.791L6.578,-5.791L5.032,-9.165ZM6.578,0.281L3.879,-2.361L3.879,-2.474C4.086,-2.549 4.32,-2.689 4.582,-2.896C4.845,-3.102 5.112,-3.336 5.383,-3.598C5.655,-3.861 5.899,-4.128 6.114,-4.4C6.33,-4.671 6.485,-4.91 6.578,-5.116L6.691,-5.116C6.784,-4.91 6.939,-4.671 7.155,-4.4C7.37,-4.128 7.614,-3.861 7.885,-3.598C8.157,-3.336 8.429,-3.102 8.701,-2.896C8.972,-2.689 9.202,-2.549 9.389,-2.474L9.389,-2.361L6.691,0.281L6.578,0.281Z" style="fill-rule:nonzero;"/>
    </g>
</svg>
